<svg width="24" height="24" viewBox="0 0 24 24" fill="none" xmlns="http://www.w3.org/2000/svg">
<path d="M4.13753 0.112535L4.00625 0.225035L3.99219 11.7141L3.98281 23.2031H2.1262H0.269584L0.13362 23.3391C-0.04454 23.5172 -0.04454 23.6859 0.13362 23.8641L0.269584 24H12H23.7304L23.8664 23.8641C24.0445 23.6859 24.0445 23.5172 23.8664 23.3391L23.7304 23.2031H22.4599H21.1893V16.5234V9.83908L21.0721 9.72658L20.9596 9.6094H18.0715H15.1881V4.93128C15.1834 1.33128 15.1741 0.239098 15.1272 0.182848C14.9865 3.43323e-05 15.0334 3.43323e-05 9.56671 3.43323e-05H4.2688L4.13753 0.112535ZM14.3911 5.20315V9.6094H12.3329H10.27L10.1387 9.7219L10.0074 9.8344L9.99336 16.5188L9.98398 23.2031H9.58547H9.18695V21.2672V19.3359L9.07443 19.1016C8.94315 18.8203 8.76499 18.6469 8.48369 18.5203C8.30084 18.4359 8.17425 18.4219 7.5882 18.4219C6.95058 18.4219 6.89432 18.4313 6.66458 18.5438C6.52862 18.6094 6.35984 18.7406 6.28013 18.8344C6.0082 19.1672 5.99883 19.2375 5.99883 21.3141V23.2031H5.38933H4.77984V12V0.796909H9.58547H14.3911V5.20315ZM20.3923 16.8047V23.2031H15.5866H10.781V16.8047V10.4063H15.5866H20.3923V16.8047ZM8.27271 19.3359L8.38992 19.4484V21.3281V23.2031H7.59289H6.79586V21.375C6.79586 19.8469 6.80524 19.5188 6.86618 19.4063C6.90369 19.3359 6.95995 19.2656 6.99277 19.2516C7.02559 19.2375 7.30221 19.2234 7.60695 19.2234C8.13206 19.2188 8.16488 19.2234 8.27271 19.3359Z" fill="black"/>
<path d="M6.2522 1.64063C6.0084 1.73907 5.99902 1.8 5.99902 3.17813C5.99902 4.51406 6.02247 4.67813 6.21 4.75313C6.2522 4.76719 6.88982 4.78125 7.62122 4.78125H8.95741L9.06994 4.66406L9.18715 4.55156V3.20156C9.18246 1.78594 9.18246 1.7625 8.96679 1.65C8.84489 1.58438 6.40692 1.57501 6.2522 1.64063ZM8.39012 3.1875V3.98438H7.59308H6.79605V3.1875V2.39063H7.59308H8.39012V3.1875Z" fill="black"/>
<path d="M10.2088 1.66875C10.0025 1.78125 9.97439 1.96407 9.99315 3.31406C10.0072 4.5375 10.0072 4.5375 10.1197 4.65938L10.2323 4.78125H11.6013H12.9703L13.0828 4.65938C13.1953 4.5375 13.1953 4.5375 13.2094 3.31406C13.2282 1.94532 13.2047 1.77657 12.9844 1.66407C12.7874 1.56094 10.3963 1.56563 10.2088 1.66875ZM12.4124 3.19688L12.4217 3.98438H11.6013H10.7808V3.22031C10.7808 2.79844 10.7949 2.4375 10.8136 2.41875C10.8324 2.40469 11.1934 2.39532 11.62 2.4L12.3983 2.41407L12.4124 3.19688Z" fill="black"/>
<path d="M6.24751 5.64375C6.16781 5.68125 6.07873 5.75157 6.0506 5.80782C6.01778 5.86875 5.99902 6.36563 5.99902 7.21406V8.52656L6.11155 8.65781L6.22407 8.78906H7.58371H8.94335L9.06525 8.67656L9.18715 8.56406V7.21406V5.86407L9.07462 5.73282L8.9621 5.60157L7.67748 5.59219C6.66009 5.58282 6.36941 5.59219 6.24751 5.64375ZM8.39012 7.21875V8.01563H7.59308H6.79605V7.21875V6.42188H7.59308H8.39012V7.21875Z" fill="black"/>
<path d="M10.359 5.60619C10.162 5.6765 10.0777 5.74681 10.0308 5.87337C10.0026 5.95775 9.98389 6.49681 9.98389 7.20462C9.98389 8.54524 10.0073 8.66712 10.2652 8.76087C10.5043 8.84056 12.7547 8.83118 12.961 8.74681C13.2048 8.64368 13.2283 8.50306 13.2095 7.09212L13.1955 5.85931L13.0642 5.73275L12.9376 5.6015L11.6811 5.59212C10.9919 5.58744 10.3965 5.59212 10.359 5.60619ZM12.4125 7.20462L12.3984 7.99212H11.6014H10.8044L10.7903 7.20462L10.7809 6.42181H11.6014H12.4219L12.4125 7.20462Z" fill="black"/>
<path d="M6.18187 9.67032C6.01309 9.80157 5.99902 9.90938 5.99902 11.2266V12.525L6.13499 12.6609L6.27095 12.7969H7.60715H8.93866L9.06525 12.675L9.18715 12.5484V11.1938V9.83907L9.06994 9.72657L8.95741 9.60938H7.60715C6.61789 9.61407 6.23813 9.62813 6.18187 9.67032ZM8.39012 11.2031V12H7.59308H6.79605V11.2031V10.4063H7.59308H8.39012V11.2031Z" fill="black"/>
<path d="M6.2522 13.6406C6.0084 13.7391 5.99902 13.8 5.99902 15.1781C5.99902 16.5141 6.02247 16.6781 6.21 16.7531C6.2522 16.7672 6.88982 16.7812 7.62122 16.7812H8.95741L9.06994 16.6641L9.18715 16.5516V15.2016C9.18246 13.7859 9.18246 13.7625 8.96679 13.65C8.84489 13.5844 6.40692 13.575 6.2522 13.6406ZM8.39012 15.1875V15.9844H7.59308H6.79605V15.1875V14.3906H7.59308H8.39012V15.1875Z" fill="black"/>
<path d="M12.136 11.3391L12 11.475V12.7734C12 14.0906 12.0141 14.1984 12.1828 14.3297C12.2391 14.3719 12.6189 14.3859 13.6081 14.3906H14.9584L15.0709 14.2734L15.1881 14.1609V12.8063V11.4516L15.0662 11.325L14.9396 11.2031H13.6081H12.2719L12.136 11.3391ZM14.3911 12.7969V13.5938H13.5941H12.797V12.7969V12H13.5941H14.3911V12.7969Z" fill="black"/>
<path d="M16.1401 11.3156L16.0088 11.4281V12.7969V14.1656L16.1401 14.2781L16.2713 14.3906H17.6029H18.9344L19.0656 14.2781L19.1969 14.1656L19.211 12.9516C19.2204 12.2859 19.211 11.6719 19.1969 11.5828C19.1828 11.4984 19.1172 11.3766 19.0563 11.3156L18.9437 11.2031H17.6075H16.2713L16.1401 11.3156ZM18.4233 12.7969V13.5938H17.6029H16.7824V12.7969V12H17.6029H18.4233V12.7969Z" fill="black"/>
<path d="M12.2532 15.2344C12.0094 15.3328 12 15.3891 12 16.8187V18.1453L12.1125 18.2578C12.1735 18.3187 12.2954 18.3844 12.3798 18.3984C12.4688 18.4125 13.083 18.4219 13.7488 18.4125L14.9631 18.3984L15.0756 18.2672L15.1881 18.1359V16.7859V15.4359L15.0662 15.3234L14.9443 15.2109L13.6503 15.2016C12.9377 15.1969 12.3047 15.2109 12.2532 15.2344ZM14.3911 16.7812V17.5781H13.5941H12.797V16.7812V15.9844H13.5941H14.3911V16.7812Z" fill="black"/>
<path d="M16.2381 15.2531C16.1443 15.2953 16.074 15.3703 16.0365 15.4688C15.9709 15.6703 15.9662 17.9297 16.0318 18.1266C16.1256 18.3844 16.2006 18.3984 17.6306 18.3984H18.9386L19.0652 18.2672L19.1965 18.1406L19.2106 16.9078C19.2293 15.4969 19.2059 15.3563 18.9621 15.2531C18.737 15.1594 16.4538 15.1594 16.2381 15.2531ZM18.4135 16.7906L18.4229 17.5781H17.6024H16.782V16.8141C16.782 16.3922 16.796 16.0313 16.8148 16.0125C16.8335 15.9984 17.1945 15.9891 17.6212 15.9938L18.3995 16.0078L18.4135 16.7906Z" fill="black"/>
<path d="M12.1969 19.2516C12.1641 19.2656 12.1078 19.3359 12.0703 19.4062C12.0141 19.5187 12 19.7859 12 20.8312V22.1203L12.1125 22.2515L12.225 22.3828L13.5097 22.3969C14.2129 22.4062 14.8365 22.3969 14.8928 22.3828C14.949 22.3687 15.0428 22.3125 15.0944 22.2562C15.1834 22.1578 15.1881 22.0969 15.1881 20.8031V19.4484L15.0709 19.3359L14.9584 19.2187L13.6081 19.2234C12.8674 19.2234 12.2297 19.2375 12.1969 19.2516ZM14.3911 20.8125V21.6094H13.5941H12.797V20.8125V20.0156H13.5941H14.3911V20.8125Z" fill="black"/>
<path d="M16.121 19.3406C16.0085 19.4624 16.0085 19.4624 15.9944 20.6859C15.9757 22.0546 15.9991 22.2234 16.2194 22.3359C16.421 22.439 18.784 22.439 18.9856 22.3359C19.206 22.2234 19.2294 22.0546 19.2107 20.6859C19.1966 19.4624 19.1966 19.4624 19.0841 19.3406L18.9715 19.2187H17.6025H16.2335L16.121 19.3406ZM18.4136 20.7984L18.3996 21.5859H17.6025H16.8055L16.7914 20.7984L16.7821 20.0156H17.6025H18.423L18.4136 20.7984Z" fill="black"/>
</svg>
