<svg width="18" height="15" viewBox="0 0 18 15" fill="none" xmlns="http://www.w3.org/2000/svg">
<path d="M6.02865 11L3.53865 6.725H1.88865V11H0.523652V0.545H3.89865C4.68865 0.545 5.35365 0.68 5.89365 0.95C6.44365 1.22 6.85365 1.585 7.12365 2.045C7.39365 2.505 7.52865 3.03 7.52865 3.62C7.52865 4.34 7.31865 4.975 6.89865 5.525C6.48865 6.075 5.86865 6.44 5.03865 6.62L7.66365 11H6.02865ZM1.88865 5.63H3.89865C4.63865 5.63 5.19365 5.45 5.56365 5.09C5.93365 4.72 6.11865 4.23 6.11865 3.62C6.11865 3 5.93365 2.52 5.56365 2.18C5.20365 1.84 4.64865 1.67 3.89865 1.67H1.88865V5.63ZM11.0146 4.295C11.2846 3.825 11.6846 3.435 12.2146 3.125C12.7546 2.805 13.3796 2.645 14.0896 2.645C14.8196 2.645 15.4796 2.82 16.0696 3.17C16.6696 3.52 17.1396 4.015 17.4796 4.655C17.8196 5.285 17.9896 6.02 17.9896 6.86C17.9896 7.69 17.8196 8.43 17.4796 9.08C17.1396 9.73 16.6696 10.235 16.0696 10.595C15.4796 10.955 14.8196 11.135 14.0896 11.135C13.3896 11.135 12.7696 10.98 12.2296 10.67C11.6996 10.35 11.2946 9.955 11.0146 9.485V14.9H9.64963V2.78H11.0146V4.295ZM16.5946 6.86C16.5946 6.24 16.4696 5.7 16.2196 5.24C15.9696 4.78 15.6296 4.43 15.1996 4.19C14.7796 3.95 14.3146 3.83 13.8046 3.83C13.3046 3.83 12.8396 3.955 12.4096 4.205C11.9896 4.445 11.6496 4.8 11.3896 5.27C11.1396 5.73 11.0146 6.265 11.0146 6.875C11.0146 7.495 11.1396 8.04 11.3896 8.51C11.6496 8.97 11.9896 9.325 12.4096 9.575C12.8396 9.815 13.3046 9.935 13.8046 9.935C14.3146 9.935 14.7796 9.815 15.1996 9.575C15.6296 9.325 15.9696 8.97 16.2196 8.51C16.4696 8.04 16.5946 7.49 16.5946 6.86Z" fill="black"/>
</svg>
