<?xml version="1.0" standalone="no"?>
<!DOCTYPE svg PUBLIC "-//W3C//DTD SVG 20010904//EN"
 "http://www.w3.org/TR/2001/REC-SVG-20010904/DTD/svg10.dtd">
<svg version="1.0" xmlns="http://www.w3.org/2000/svg"
 width="512.000000pt" height="512.000000pt" viewBox="0 0 512.000000 512.000000"
 preserveAspectRatio="xMidYMid meet">

<g transform="translate(0.000000,512.000000) scale(0.100000,-0.100000)"
fill="#000000" stroke="none">
<path d="M1200 3915 l0 -1205 -600 0 -600 0 0 -1355 0 -1355 2560 0 2560 0 0
1355 0 1355 -600 0 -600 0 0 1205 0 1205 -1360 0 -1360 0 0 -1205z m790 480
l0 -425 570 0 570 0 0 425 0 425 240 0 240 0 0 -1055 0 -1055 -1050 0 -1050 0
0 1055 0 1055 240 0 240 0 0 -425z m840 155 l0 -270 -270 0 -270 0 0 270 0
270 270 0 270 0 0 -270z m-2048 -2562 l3 -423 570 0 570 0 3 423 2 422 240 0
240 0 0 -1055 0 -1055 -1055 0 -1055 0 0 1055 0 1055 240 0 240 0 2 -422z
m848 152 l0 -270 -275 0 -275 0 0 270 0 270 275 0 275 0 0 -270z m1562 -152
l3 -423 570 0 570 0 3 423 2 422 240 0 240 0 0 -1055 0 -1055 -1055 0 -1055 0
0 1055 0 1055 240 0 240 0 2 -422z m848 152 l0 -270 -275 0 -275 0 0 270 0
270 275 0 275 0 0 -270z"/>
</g>
</svg>
